<svg xmlns="http://www.w3.org/2000/svg" version="1.1" width="3250px" height="2800px" viewBox="0 0 3250 2800">
    <style>
        path { fill: black; }
        @media (prefers-color-scheme: dark) { path { fill: white; } }
    </style>
    <path d="
        M 3106.4 1034.8
        Q 3104.4 1033.25 3102 1033.4
        L 2820.3 1055.95 2864.45 928.45
        Q 2865.3 925.9 2864.2 923.65 2863.05 921.25 2860.65 920.4 2858.1 919.4 2855.7 920.55
        L 2558.9 1057.4
        Q 2556.65 1058.35 2555.8 1060.6 2554.8 1062.9 2555.65 1065.15 2556.35 1067.4 2558.5 1068.65 2560.45 1069.95 2562.85 1069.35
        L 2762.35 1027.6 2727.35 1138.75
        Q 2726.65 1141.05 2727.65 1143.15 2728.5 1145.25 2730.75 1146.4 2732.85 1147.4 2735.1 1146.8
        L 3104.15 1045.95
        Q 3106.55 1045.25 3107.8 1043.15 3109.05 1041 3108.8 1038.6 3108.25 1036.2 3106.4 1034.8
        M 2731.15 471.1
        Q 2729.2 471.55 2727.9 473.1
        L 2438 793.6
        Q 2436.35 795.25 2436.35 797.65 2436.35 800.05 2437.9 801.9 2439.3 803.75 2441.7 804.15 2443.95 804.45 2446.05 803.3
        L 2658.1 674.4 2671.5 822.35
        Q 2671.75 824.9 2673.75 826.6 2675.6 828.3 2678.1 828.15 2680.65 828 2682.5 826.15
        L 2895.65 603.85 2904.8 756.35
        Q 2904.95 758.9 2906.9 760.7 2908.9 762.4 2911.45 762.25 2914 762.1 2915.8 760.3
        L 3233.35 422.85
        Q 3235.05 421 3235.05 418.65 3235.05 416.25 3233.5 414.4 3231.95 412.55 3229.55 412.3 3227.15 411.85 3225.15 413.25
        L 2951.1 604 2937.4 435.15
        Q 2937.25 433.15 2936 431.6 2934.85 430.05 2933 429.5 2931.05 428.9 2929.2 429.5 2927.4 430.05 2926.1 431.6
        L 2731.6 668.15 2738.9 477.6
        Q 2739.05 475.6 2737.95 473.9 2736.8 472.25 2734.95 471.55 2733.15 470.7 2731.15 471.1
        M 2776.7 52.7
        Q 2774.3 52.85 2772.65 54.55
        L 2588.95 233.7 2576.4 143.4
        Q 2576 141.3 2574.55 139.9 2573 138.35 2571.05 138.05 2568.95 137.6 2567.1 138.75 2565.1 139.75 2564.25 141.7
        L 2484.85 314.95 2446.75 243.15
        Q 2445.65 240.9 2443.25 240.2 2440.85 239.35 2438.6 240.3 2436.2 241.45 2435.35 243.7
        L 2312.6 542.05
        Q 2311.6 544.3 2312.45 546.55 2313.15 548.85 2315.45 550.1 2317.55 551.25 2319.95 550.65 2322.2 550.1 2323.6 548.15
        L 2449.85 366.85 2477.5 440.65
        Q 2478.5 443.05 2480.9 444.15 2483.15 445.3 2485.7 444.3 2488.1 443.45 2489.25 441.05
        L 2550.75 307.9 2569.05 381.65
        Q 2569.65 384.2 2571.9 385.6 2574 386.9 2576.7 386.3 2579.1 385.75 2580.5 383.5
        L 2782.35 62.45
        Q 2783.65 60.3 2783.35 58.05 2782.95 55.65 2781.1 54.1 2779.1 52.55 2776.7 52.7
        M 1945.5 213.35
        Q 1945.7 210.45 1945.4 207.65 1945.15 206.65 1944.95 205.65 1944.7 204.65 1944.4 203.55 1943.8 201.8 1942.9 200.15 1941.95 198.25 1940.65 196.55 1940.15 195.9 1939.65 195.4 1939.3 194.9 1938.9 194.6 1938.8 194.35 1938.7 194.2 1938.45 193.95 1938.2 193.85 1831.2 82.6 1700.7 26.75
        L 1700.45 26.6
        Q 1694.95 24.35 1689.45 22.05
        L 1689.35 22.05
        Q 1681.1 18.65 1672.8 15.55 1665.5 12.7 1658.15 14.9 1648.6 17.6 1639.1 20.25 1632 22.2 1625.1 24.1 1338.9 105.75 1084.75 232.5 1082.2 233.6 1080.05 235.3 1076.8 237.6 1074.6 240.8 987.1 350.3 939.65 488.05 936.5 497.1 940.7 505.75 981.2 592.6 1038.25 658.8 1040.55 661.35 1042.8 664.05 1039.95 695.15 1036.1 750.8 1035.7 756.75 1035.25 763.05 1033.95 781 1033.05 796.65 1031.75 811.85 1031.15 824.95 1028.3 867.5 1027.95 884.65 1026.4 941 1028.2 959.15 1034.85 1028.15 1070.2 1026.65 1101.7 1027.65 1115.75 997.3 1120.65 987 1129.25 944.7 1135.05 915.55 1144.55 904.6 1157.45 891.85 1184.25 898.7 1187.6203125 899.51484375 1190.75 898.5 1208.0849609375 968.9595703125 1230.35 1037.75 1161.8734375 1055.115625 1105.55 1087.1 1016.95 1136.9 976.05 1216.15
        L 976.2 1216.15
        Q 940.85 1283.3 926 1354.5 883.8 1366.85 847.35 1387.1 782.7 1422.65 740.1 1479.2
        L 740.25 1479.2
        Q 700.4 1531.65 683.95 1596.6 668 1658.15 675.55 1721.3 678.1 1743.8 685.7 1764.9 659.55 1820.8 668.2 1893.9 668.5126953125 1896.53984375 668.85 1899.2 663.8103515625 1892.9763671875 658.8 1886.7 657.5048828125 1868.9115234375 658 1849.8 657.95 1847.35 656.35 1845.7 654.8 1843.95 652.5 1843.95 650.05 1843.9 648.35 1845.45 646.65 1847.1 646.65 1849.45 646.36328125 1860.6578125 646.65 1871.45 579.2458984375 1785.569921875 522.6 1692.95
        L 522.4 1692.75
        Q 522.3 1692.5 522.25 1692.4 521.95 1692 521.65 1691.7 520.05 1689.65 517.6 1688.8 517.1 1688.6 516.85 1688.55 516.65 1688.5 516.5 1688.45 515.7 1688.2 514.9 1688.2 514 1688.2 513.2 1688.25 512.9 1688.25 512.55 1688.4 511.65 1688.5 510.95 1688.8 510.35 1688.95 509.95 1689.25 509 1689.65 508.3 1690.3 506.95 1691.3 506.2 1692.6 327.45 1913.8 69.9 2137.75 69.7 2138 69.5 2138.1 67.25 2139.9 66.4 2142.9 66 2144.25 66.05 2145.6 66 2146.4 66.25 2147.15 66.25 2147.55 66.45 2148 66.45 2148.3 66.55 2148.55 84.45 2216.3 46.25 2287.2 44.65 2290.1 45.3 2293.4 45.8 2296.75 48.4 2298.95 51 2301.05 54.55 2301.2 281.15 2304.35 552.8 2476.8 553.25 2477.15 553.85 2477.3 555.15 2478.05 556.75 2478.2 558.9 2478.5 561.2 2477.7 562.35 2477.2 563.4 2476.5 564.35 2475.8 565.3 2474.85 565.45 2474.5 565.75 2474.25
        L 610.3 2412.1
        Q 706.05 2520 792.8 2662.1 793.8 2663.85 795.55 2665 797.2 2666.1 799.3 2666.55 956.5 2694.75 1103.9 2766.25 1104.3 2766.45 1104.85 2766.75
        L 1105.75 2767.2 1105.9 2767.25
        Q 1108.05 2768.1 1110.3 2767.8 1110.8 2767.75 1111.3 2767.6 1112.25 2767.5 1113.15 2767.1 1113.6 2766.9 1114.15 2766.5 1116.85 2764.85 1118.25 2761.8 1118.5 2760.85 1118.8 2759.9 1159.95 2601.5 1244.4 2490.8 1245.6 2489.15 1246.05 2487.05 1246.5 2484.9 1246.15 2482.85 1198.2 2283.6 1186.2 2063.35
        L 1186.2 2063.1
        Q 1186.15 2062.95 1186.2 2062.8 1186.05 2061.5 1185.75 2060.4 1185.65 2060.2 1185.55 2059.95 1185.2 2059.25 1184.75 2058.6 1184.2 2057.65 1183.45 2056.85 1183.25 2056.7 1183 2056.5 1182.75 2056.2 1182.55 2056 1181.8 2055.55 1181.15 2055.1 1180.4 2054.75 1179.65 2054.5 1178.7 2054.25 1177.7 2054.2 1115.10234375 2043.625390625 1050.05 2037.7 1049.89609375 2035.15625 1049.6 2032.55 1045.4 1983.9 994.15 1965.25
        L 994.05 1965.25
        Q 950.6 1949.05 895.95 1960.55 843.95 1971.45 826.3 1980.45
        L 826.45 1980.35
        Q 807.9 1989.15 788 2005.35
        L 788.1 2005.2
        Q 780.96875 2010.7775390625 774.25 2018.05 763.00390625 2006.33984375 751.95 1994.45 741.29296875 1977.5296875 735.3 1963.3 719.25 1924.6 715 1888.4 710.3 1848.7 718.15 1815.25 742.55 1849.7 780.35 1875.35
        L 780.4 1875.45
        Q 817.65 1900.65 860.45 1912.45 903.9 1924.45 941.85 1919.85 1021.95 1910.25 1054.25 1870.9 1088.7 1831.35 1091.65 1803 1095.9 1775.4 1086.1 1740.85 1077.65 1705.95 1025.75 1664.25
        L 1025.65 1664.25
        Q 975.7 1623.15 892.35 1630.5 888.7 1630.4 883.4 1630.9
        L 883.3 1630.9
        Q 870.45 1631.9 853.9 1635.8
        L 854 1635.8
        Q 808.8 1646.1 770.25 1669.3 752.25 1680.15 737.35 1692.9 735.6 1652.15 745.9 1612.55
        L 745.9 1612.4
        Q 759.1 1560 791.15 1517.75 825.85 1471.85 878.2 1443.1 904.75 1428.4 935.15 1418.75 941.4 1464.2 964.25 1512.55 989.35 1565.7 1027.75 1607.25
        L 1027.95 1607.35
        Q 1071.3 1654.15 1123.4 1677.05
        L 1123.55 1677.2
        Q 1177.35 1700.9 1234.8 1697.3
        L 1235.2 1697.25
        Q 1241.5 1696.75 1247.9 1696 1262.15 1694.3 1269.7 1693.3
        L 1270.3 1693.25
        Q 1275.15 1692.5 1284.3 1690.3 1284.55 1690.15 1284.95 1690.1 1293.3 1688.1 1318.95 1676.55
        L 1319.2 1676.5
        Q 1350.25 1662.7 1370.75 1628.8
        L 1370.75 1628.65
        Q 1391.6 1593.8 1390.6 1580.2
        L 1390.6 1580.1
        Q 1391.35 1570.2 1391.2 1552.7
        L 1391.2 1552.6
        Q 1392.6 1532.2 1366.1 1477.2
        L 1366.15 1477.35
        Q 1341.25 1424.65 1290.25 1388.25 1245.3 1356.25 1230.2 1347.9 1230.1 1347.75 1229.95 1347.8 1211 1336.85 1187.95 1331.95
        L 1188.25 1332
        Q 1173 1328.6 1170.9 1328.1 1170.1 1327.95 1169.6 1327.75 1147.4 1321.75 1101.05 1321.9 1056.25 1322 1026.9 1328.15 1026.4 1328.2 1025.75 1328.35 1037.4 1292.45 1055.65 1257.9
        L 1055.65 1257.8
        Q 1085.75 1201.15 1149.6 1165.3
        L 1149.7 1165.25
        Q 1197.55 1138.15 1256.3 1123.85 1258.2234375 1123.3638671875 1260.05 1122.75 1285.8208984375 1191.5380859375 1316.7 1258.6 1356.45 1345 1404.85 1428.65 1445.55 1499.05 1492.3 1567.6 1496.45 1573.5 1503.1 1576.6 1656.75 1648.6 1869.9 1668.85 1870.65 1668.9 1871.55 1669.05 1873.95 1669.2 1876.3 1668.95 1878.2 1668.75 1880 1668.3 1880.65 1668.05 1881.4 1667.9 1883.2 1667.2 1884.95 1666.35 1885.65 1666 1886.4 1665.65 2230.45 1472.25 2486.95 1225.85 2492.05 1220.85 2494.1 1214.2 2496.05 1207.45 2494.3 1200.45 2399.95 812.7 2153.05 483.85 2152.75 483.45 2152.55 483.2 2151.55 481.75 2150.5 480.5 2146.55 475.6 2140.85 473.05 2135.25 470.55 2129.05 470.75 2114.65 471.25 2100.4 471.9 1893.4638671875 481.5912109375 1681.2 528.95 1735.03125 505.4416015625 1788.35 480.95
        L 1788.35 480.8
        Q 1809.5 471.05 1830.85 461.1
        L 1831 461
        Q 1837.8 457.8 1844.5 454.65 1850.05 452.05 1853.65 447.1 1855.1 445.1 1856.55 443.1
        L 1856.8 442.85
        Q 1927 342.5 1945.2 214.7
        L 1945.5 213.35
        M 2102.75 524.7
        Q 2110 524.35 2117.2 524.05 2347.65 834.25 2439.4 1198.15 2199.2 1425.8 1882.45 1607.15 1642.85 1216.75 1469.65 746.25 1452.15 699.15 1435.65 651.25 1445.95 647.9 1456.35 644.65 1786.05 539.7 2102.75 524.7
        M 1373.45 695.1
        L 1373.55 695.1
        Q 1381.45 687.75 1389.7 680.35 1404.65 722.6 1420.1 764.55 1589.9 1225.55 1822.6 1610.4 1657.05 1588.55 1531.95 1531.8 1488.6 1467.9 1450.6 1402.2 1403.5 1320.75 1364.7 1236.5 1279.45 1051.25 1234.15 852.55 1284.5 777.15 1373.45 695.1
        M 1638.2 69.65
        Q 1644.9 67.65 1651.9 65.7
        L 1651.75 65.85
        Q 1657.6 64.1 1663.45 62.6 1667.45 64.1 1671.5 65.7
        L 1671.35 65.7
        Q 1676.8 68 1682.3 70.3
        L 1682.05 70.15
        Q 1790.6 116.9 1881.65 204.35 1619.55 331.3 1278.8 449.95 1206.4 379.95 1128.6 263.55 1369.05 146.4 1638.05 69.65
        L 1638.2 69.65
        M 1818.85 414.5
        Q 1814.75 416.45 1810.8 418.35
        L 1810.65 418.35
        Q 1789.55 428.15 1768.5 437.9
        L 1768.65 437.9
        Q 1598.2 516.15 1422.85 584.25 1307.35 629.05 1189.45 669.4 1241.75 589.35 1289.7 496.15 1628.3 378.55 1890.15 252.75 1869.5 341.65 1818.85 414.5
        M 1125.25 679.85
        Q 1098.1 655.95 1074.1 627.95 1024.05 569.75 987.5 494.5 1026.55 385.15 1092.7 294.9 1170.8 410.95 1243.75 481.95 1187.6 590.25 1125.25 679.85
        M 508.1 1720.3
        Q 518 1795.8 499.35 1863.45 359.6 2031.1 173.55 2164.4 134.45 2151.75 95.3 2140.9 336.65 1929.25 508.1 1720.3
        M 171.5 2183.6
        Q 171.85 2183.75 172.3 2183.95 362.95 2245.5 547.4 2348.25 531 2399 541.7 2447.35 286.05 2290.25 69.85 2282.5 99.55 2219.55 88.35 2158.85 129.95 2170.2 171.5 2183.6
        M 555.4 2330.9
        Q 378.55 2232.5 196 2171.7 372.85 2042.9 507.75 1883.1 624.35 2030.25 720.1 2099.45 624.35 2211.35 555.4 2330.9
        M 617.35 2391.3
        Q 617.2 2391.25 617.15 2391.1
        L 616.6 2390.55
        Q 600.5 2372.6 584.1 2355.7 795.6 2376.3 952.7 2428.7
        L 1090.2 2738.75
        Q 952.8 2675.25 806.9 2648.55 716.85 2501.8 617.35 2391.3
        M 597.3 2397.6
        L 561.35 2447.6
        Q 550.95 2405.75 563.3 2361.65 580.35 2379 597.3 2397.6
        M 980.65 2390.2
        L 980.9 2389.85
        Q 1033.75 2253.05 1168.55 2088.3 1181.65 2294.85 1226.5 2483 1148.6 2586.35 1107.2 2730.1
        L 969.9 2420.5
        Q 974.75 2405.55 980.65 2390.2
        M 1298.35 1509.6
        L 1298.4 1509.75
        Q 1314.05 1542.5 1316 1553.6 1316.049609375 1567.0607421875 1315.7 1574.6 1313.45 1578 1306.2 1590.05
        L 1306.35 1589.9
        Q 1298.7 1602.5 1287.65 1608.25
        L 1287.9 1608.1
        Q 1271.05 1615.8 1265.65 1617.45 1261.35 1618.45 1258.95 1618.9 1252 1619.8 1239.1 1621.35 1234.6 1621.85 1230.15 1622.3 1190.85 1624.65 1154 1608.45
        L 1153.85 1608.45
        Q 1115.25 1591.05 1082.9 1556.15
        L 1083.1 1556.25
        Q 1052.35 1522.95 1032.2 1480.35
        L 1032.2 1480.5
        Q 1014.6 1443.1 1009.5 1407.85 1027.3 1404.75 1041.95 1401.75 1065.4 1397.1 1101.15 1397
        L 1101.3 1397
        Q 1135.05 1396.85 1151.3 1400.65 1155.7 1401.8 1172 1405.45
        L 1172.25 1405.4
        Q 1183.45 1407.85 1192.85 1413.1
        L 1193 1413.25
        Q 1206.35 1420.8 1246.7 1449.55 1281.35 1474.15 1298.35 1509.6
        M 992.65 1705.5
        Q 1027.6 1733.45 1035.25 1755.3 1041.55 1777.5 1039.35 1795.35 1035.7 1811.75 1014.35 1836.25 991 1860.8 935.65 1867.35 907.15 1870.5 874.5 1861.5 840.05 1852 810.15 1831.7
        L 810 1831.7
        Q 778.65 1810.3 758.85 1781.25 752.85 1772.3 748.2 1763.1 748.85 1759.95 748.9 1756.9 767.95 1732.4 797.55 1714.55
        L 797.4 1714.55
        Q 828.85 1695.75 865.85 1687.3
        L 865.8 1687.2
        Q 878.3 1684.35 887.85 1683.6
        L 888 1683.6
        Q 889.6 1683.4 890.6 1683.35 892.9 1683.5 895.3 1683.35 956.05 1677.4 992.65 1705.5
        M 663.4 1922.6
        Q 670.244140625 1930.850390625 677.15 1939 682.90703125 1959.8166015625 691.7 1981.3 706.27890625 2017.350390625 747.2 2068.3 739.8015625 2076.5962890625 732.55 2084.95 636.35 2015.7 518.45 1865.95 534.65 1805.65 529.4 1739.7 584.596484375 1825.4376953125 649.2 1905.25 654.95234375 1951.0193359375 672.85 1988.05 673.85 1990.15 676.1 1991.05 678.25 1991.8 680.4 1990.8 682.4 1989.65 683.3 1987.5 684.05 1985.25 683.05 1983.2 669.705078125 1955.47421875 663.4 1922.6
        M 844.45 2017.8
        L 844.55 2017.8
        Q 859.85 2010.65 904.5 2001.35 946.45 1992.4 979.85 2004.35 1003.95859375 2013.0822265625 1007.9 2034.35 917.6482421875 2028.3306640625 822.75 2031 833.9462890625 2022.90703125 844.45 2017.8
        M 818.35 2074
        L 818.2 2073.9
        Q 810.3896484375 2062.3947265625 802.3 2050.85 906.948046875 2046.7423828125 1005.9 2053.3 1001.2376953125 2065.27578125 987.55 2073.8 957.5 2092.05 911.85 2094.8 867.45 2097.3 854.45 2092.95
        L 854.6 2092.9
        Q 840.3 2086.9 818.35 2074
        M 881.15 2173.6
        Q 870.2578125 2154.9193359375 858.6 2136.1 878.8525390625 2138.275390625 914.2 2136.3
        L 914.35 2136.3
        Q 971.7 2132.8 1009.55 2109.2 1043.0705078125 2088.4107421875 1048.95 2056.7 1104.72265625 2061.7873046875 1158.65 2070.35 1045.8990234375 2207.0759765625 988.35 2325.15 987.82265625 2325.1826171875 987.25 2325.25 974.8052734375 2326.3677734375 958.75 2327.35 947.5966796875 2301.0859375 934.85 2274.55 939.4177734375 2273.66328125 944.05 2272.55
        L 944.3 2272.55
        Q 956.25 2269.5 976.4 2256.95
        L 976.5 2256.9
        Q 999.95 2242 1000.5 2216.1
        L 1000.5 2216
        Q 1000.8 2188.65 978.7 2177.05 960.1 2166.8 940.7 2167.05 923.85 2167.15 896.85 2170.7
        L 896.75 2170.75
        Q 888.7623046875 2171.7314453125 881.15 2173.6
        M 778.2 2097.55
        Q 787.1 2104 797.3 2109.9 816.8796875 2121.2853515625 831 2127.95 847.5900390625 2153.9884765625 862.7 2179.8 852.673046875 2184.1193359375 843.4 2190.25 826.75 2201.25 814.3 2217.85 809.75 2213.15 802.25 2205.3 782 2183.05 777.85 2138.45 775.6 2115 778.2 2097.55
        M 741.1 2104.2
        Q 741.1404296875 2104.03828125 741.25 2103.95 740.123046875 2121.1142578125 742.05 2141.8 747.6 2201.35 776.25 2230.2
        L 776.4 2230.2
        Q 794.2 2248.75 803.75 2255.65 803.9 2259.85 804.45 2264.45 811.35 2331.45 895.3 2347.95 917.95 2352.35 947.8 2352.9 948.1880859375 2352.8515625 948.7 2352.9 955.536328125 2369.7212890625 961.7 2386.45 957.4 2397.8 953.6 2408.95 792.15 2355.85 574.65 2335.75 644.35 2216 741.1 2104.2
        M 941 2191.9
        Q 954.2 2191.85 966.8 2198.8
        L 966.85 2198.9
        Q 975.7 2204.1 975.65 2215.5 975.05 2228.4 963.2 2235.9 947.4 2245.9 938 2248.55
        L 938.15 2248.55
        Q 930.703515625 2250.3474609375 923.45 2251.45 909.6162109375 2223.9716796875 894.1 2196.25 896.9611328125 2195.7494140625 899.9 2195.4 925.25 2192.15 941 2191.9
        M 857.1 2211
        Q 865.7251953125 2205.26484375 875.2 2201.55 889.8720703125 2227.5162109375 903 2253.25 865.337890625 2254.382421875 834.75 2238.4 834.25 2236.25 833.25 2234.25 833.25 2234.1 833.25 2234 843.5 2220.05 857.1 2211
        M 900.2 2323.6
        L 900.05 2323.5
        Q 837.25 2311.25 829.35 2263.65 867.6470703125 2281.6943359375 915.05 2277.4 927.361328125 2302.69609375 938.2 2327.75 917.0193359375 2326.8154296875 900.2 2323.6
        M 976.3 2351.1
        Q 974.2326171875 2355.8015625 972.25 2360.45 970.54296875 2356.0685546875 968.8 2351.65 972.6572265625 2351.4107421875 976.3 2351.1
        M 1118.25 735
        Q 1120.5 736.3 1122.85 737.05 1124.25 737.45 1125.9 737.75
        L 1126 737.75
        Q 1131 738.65 1136.35 737.15 1137.35 736.75 1138.55 736.45 1229.5060546875 706.369921875 1319.1 673.7 1232.5 756.5595703125 1183.7 833.2 1177.65 842.35 1180.15 853.2 1182.66328125 864.52890625 1185.3 875.8 1146.705859375 867.377734375 1127.85 889.4 1114.65 902.95 1107.15 940.2 1099.5 978.35 1095.3 987.85 1087.7 1004.3 1070.8 1004.1 1054.95 1001.45 1050.7 956.9 1049.1 939.6 1050.5 885.25 1050.95 868.35 1053.7 826.3
        L 1053.7 826.2
        Q 1054.45 813.2 1055.55 798.25
        L 1055.6 798.15
        Q 1056.65 782.5 1057.85 764.45 1058.25 758.3 1058.65 752.4 1061.35 713.2 1063.55 686.4 1087.6 711 1114.25 732.25 1114.4 732.4 1114.65 732.5 1114.8 732.65 1115.05 732.95 1115.9 733.6 1116.8 734.1 1117.5 734.65 1118.25 735
        M 1066.4 780
        Q 1064.55 781.45 1064.5 783.85
        L 1060.7 853.5
        Q 1060.65 855.75 1062.25 857.55 1063.7 859.4 1066.1 859.45 1068.35 859.5 1070.2 858.05 1072 856.45 1072.05 854.15
        L 1075.85 784.5
        Q 1075.9 782.1 1074.45 780.3 1072.85 778.5 1070.6 778.45 1068.2 778.4 1066.4 780
        M 742.3 2219.2
        Q 741.45 2221.35 742.45 2223.55 755.05 2250.85 780.7 2264.45 783 2308.65 805.85 2329.95 807.4 2331.5 809.8 2331.5 812.1 2331.45 813.75 2329.75 815.4 2328.05 815.35 2325.6 815.35 2323.35 813.65 2321.75 793.35 2301.95 791.9 2260.75 791.85 2259.1 791.05 2257.75 790.15 2256.5 788.65 2255.75 764.45 2243.9 752.8 2218.75 751.75 2216.55 749.65 2215.8 747.4 2214.95 745.25 2215.95 743.05 2217 742.3 2219.2
        M 677.8 2256.25
        Q 675.85 2254.9 673.5 2255.35 671.2 2255.75 669.9 2257.7
        L 652.65 2281.75
        Q 651.25 2283.6 651.75 2285.85 652.05 2288.2 654.05 2289.55 655.9 2290.95 658.25 2290.55 660.5 2290.1 661.9 2288.3
        L 679.1 2264.2
        Q 680.45 2262.25 680.1 2259.95 679.6 2257.65 677.8 2256.25
        M 671.45 2219.85
        Q 669 2220.3 667.8 2222.2
        L 606.25 2311.4
        Q 604.85 2313.3 605.35 2315.7 605.7 2318 607.65 2319.35 609.45 2320.6 611.95 2320.2 614.25 2319.75 615.55 2317.9
        L 677.1 2228.7
        Q 678.35 2226.75 678 2224.4 677.5 2222 675.7 2220.8 673.75 2219.45 671.45 2219.85
        M 997.7 2166.8
        Q 995.85 2165.25 993.6 2165.5 991.2 2165.8 989.8 2167.65 988.25 2169.45 988.5 2171.85 988.8 2174.1 990.6 2175.65 1003.5 2185.8 1004.55 2200.4 1004.75 2202.7 1006.55 2204.25 1008.25 2205.8 1010.65 2205.7 1012.95 2205.5 1014.5 2203.8 1016.05 2201.95 1015.95 2199.7 1014.8 2180.4 997.7 2166.8
        M 968.1 2011.35
        Q 966.65 2009.45 964.3 2009.2 918.55 2003.15 886.05 2015.45 883.8 2016.2 882.85 2018.35 881.85 2020.4 882.75 2022.7 883.55 2024.9 885.7 2025.95 887.65 2026.8 890 2026 920.15 2014.85 962.85 2020.45 965.15 2020.7 967.05 2019.35 968.9 2017.85 969.25 2015.55 969.5 2013.25 968.1 2011.35
        M 1074.45 1506.1
        Q 1073.35 1504.1 1071.1 1503.45 1068.75 1502.85 1066.75 1504.1 1064.75 1505.2 1064.1 1507.55 1063.5 1509.8 1064.75 1511.8 1090.85 1556.65 1152.6 1596.45 1154.5 1597.7 1156.75 1597.2 1159.1 1596.65 1160.4 1594.75 1161.65 1592.65 1161.15 1590.45 1160.6 1588.1 1158.7 1586.95 1099.6 1548.7 1074.45 1506.1
        M 1147.75 2168.3
        Q 1145.8 2166.95 1143.55 2167.2 1141.15 2167.65 1139.75 2169.5
        L 1122.65 2192.35
        Q 1121.35 2194.2 1121.65 2196.55 1122 2198.85 1123.85 2200.25 1125.7 2201.65 1128.1 2201.4 1130.4 2201.05 1131.8 2199.2
        L 1148.85 2176.35
        Q 1150.2 2174.4 1150 2172.15 1149.6 2169.65 1147.75 2168.3
        M 1150.45 2128.3
        Q 1148.45 2126.9 1146.15 2127.35 1143.75 2127.8 1142.55 2129.75
        L 1084.8 2214.5
        Q 1083.45 2216.35 1083.8 2218.85 1084.25 2221.15 1086.25 2222.4 1088.1 2223.8 1090.5 2223.35 1092.75 2222.85 1094.15 2221
        L 1151.85 2136.25
        Q 1153.1 2134.3 1152.75 2131.95 1152.25 2129.6 1150.45 2128.3
        M 783.1 2541.1
        Q 780.7 2540.7 778.8 2541.95 776.8 2543.1 776.4 2545.5 775.9 2547.8 777.15 2549.75
        L 806.6 2595.55
        Q 807.7 2597.5 810.2 2598.1 812.45 2598.5 814.4 2597.35 816.35 2596.1 816.9 2593.75 817.25 2591.35 816.15 2589.4
        L 786.7 2543.55
        Q 785.45 2541.65 783.1 2541.1
        M 726.2 2505.05
        Q 725.65 2507.3 726.95 2509.35
        L 808.7 2632.7
        Q 809.95 2634.65 812.25 2635.1 814.5 2635.5 816.6 2634.3 818.45 2632.9 818.95 2630.65 819.35 2628.4 818.2 2626.45
        L 736.45 2503.05
        Q 735.05 2501.1 732.75 2500.65 730.5 2500.2 728.55 2501.45 726.55 2502.8 726.2 2505.05
        M 501.15 1942.85
        Q 498.75 1942.75 497.25 1944.6
        L 455.55 1988.35
        Q 453.8 1990.05 453.95 1992.3 453.95 1994.65 455.7 1996.2 457.35 1997.85 459.8 1997.9 462.1 1997.8 463.8 1996.1
        L 505.55 1952.35
        Q 507.05 1950.55 507 1948.25 506.95 1945.9 505.25 1944.3 503.45 1942.8 501.15 1942.85
        M 510.95 1908
        Q 510.7 1905.65 509 1904.2 507.1 1902.7 504.8 1902.85 502.35 1903 501 1904.85
        L 415.2 2005.9
        Q 413.65 2007.75 413.8 2010 413.95 2012.4 415.85 2013.9 417.55 2015.35 419.9 2015.3 422.3 2015.05 423.8 2013.25
        L 509.6 1912.15
        Q 511 1910.35 510.95 1908
        M 131.6 2251.7
        Q 133.05 2253.5 135.4 2253.7 165.4 2256.7 191.8 2264.3 194.05 2265 196.15 2263.75 198.25 2262.55 198.85 2260.3 199.55 2258.1 198.35 2256 197.2 2254 194.95 2253.4 167.65 2245.5 136.5 2242.45 134.2 2242.3 132.35 2243.75 130.55 2245.25 130.3 2247.55 130.1 2249.85 131.6 2251.7
        M 98.75 2269.65
        Q 100.25 2271.5 102.65 2271.7 169.8 2274.6 228.55 2294.6 230.7 2295.45 232.85 2294.35 234.9 2293.3 235.75 2291.2 236.55 2288.85 235.4 2286.7 234.4 2284.7 232.2 2283.9 172 2263.45 103.1 2260.3 100.7 2260.1 99.1 2261.8 97.25 2263.3 97.25 2265.65 97.2 2268 98.75 2269.65
        M 1002 491.25
        Q 999.6 490.65 997.7 491.85 995.65 493.05 995.1 495.45 994.45 497.7 995.7 499.8
        L 1020.75 540.9
        Q 1021.95 542.85 1024.35 543.4 1026.6 543.95 1028.65 542.75 1030.55 541.5 1031.1 539.25 1031.7 536.9 1030.5 534.95
        L 1005.45 493.8
        Q 1004.25 491.8 1002 491.25
        M 1228.15 485
        Q 1227.85 483.1 1226.75 481.8
        L 1195.35 447.4
        Q 1193.75 445.6 1191.35 445.55 1188.95 445.5 1187.25 447.05 1185.5 448.55 1185.4 450.95 1185.35 453.3 1186.95 455
        L 1215.5 486.4 1196.45 520.85
        Q 1195.3 522.95 1196 525.25 1196.7 527.4 1198.65 528.6 1200.8 529.8 1203.05 529.1 1205.2 528.4 1206.4 526.4
        L 1227.45 488.4
        Q 1228.35 486.75 1228.15 485
        M 1737.65 417.7
        Q 1738.2 415.45 1737.1 413.4 1736 411.25 1733.8 410.65 1731.55 410 1729.45 411.1 1676.55 439.75 1633.95 451.6 1631.7 452.3 1630.6 454.3 1629.4 456.3 1629.95 458.55 1630.65 460.85 1632.7 462 1634.65 463.1 1636.95 462.5 1680.5 450.4 1734.9 421.05 1736.95 420 1737.65 417.7
        M 1568.95 512.35
        Q 1571.05 513.4 1573.35 512.6 1662.55 480.6 1759.5 429.9 1761.6 428.7 1762.4 426.55 1763.05 424.15 1762 422.15 1760.8 420.05 1758.65 419.4 1756.4 418.6 1754.2 419.8 1658.1 470.15 1569.45 501.9 1567.2 502.75 1566.2 504.8 1565.15 506.95 1565.95 509.1 1566.8 511.3 1568.95 512.35
        M 1245.75 253.95
        Q 1245.25 253.85 1244.9 253.9 1242.35 253.5 1239.6 253.8 1237.3 253.95 1235.4 255.1 1233.6 255.7 1231.95 257 1228.45 259.7 1227.85 264.1 1227.4 267 1228.5 269.8 1228.45 270.9 1228.7 272.2 1228.2 274.3 1228.3 276.85 1227.8 280 1230.15 286.85
        L 1230.3 286.85
        Q 1232.85 294.5 1236.95 298.15 1240.15 301.4 1244.55 301.5 1244.95 301.5 1245.55 301.5 1249.05 301.85 1252 300.55 1254.15 300.6 1256.55 300.4
        L 1259.55 300.5
        Q 1264.25 300.6 1267.75 297.45 1271.1 294.15 1271.2 289.45
        L 1271.45 280.15
        Q 1271.55 266.2 1261.75 260.8 1257.75 254.25 1245.75 253.95
        M 1448.05 362.9
        Q 1445.95 361.85 1443.8 362.65
        L 1284.95 417.2 1238.55 357.5
        Q 1237.05 355.55 1234.85 355.25 1232.45 354.9 1230.65 356.5 1228.7 357.8 1228.4 360.2 1228.1 362.5 1229.55 364.4
        L 1278.4 427.35
        Q 1279.45 428.8 1281.25 429.35 1283 429.8 1284.75 429.15
        L 1447.4 373.35
        Q 1449.55 372.5 1450.65 370.55 1451.7 368.4 1450.9 366.25 1450.05 363.95 1448.05 362.9
        M 1328.7 228.25
        Q 1327.2 227.45 1325.55 227.3 1320.55 226.35 1316.9 225.4 1315.65 225 1314.25 225.1
        L 1309.2 224.95
        Q 1305.7 224.9 1302.75 226.8 1301.5 227.5 1300.65 228.65 1296.45 231.3 1295.3 236.05 1295.15 236.05 1295.05 236.3 1291.7 239.1 1291.2 243.5 1290.7 247.95 1293.4 251.55 1297.65 257.2 1298.8 258.35 1299.6 259.3 1300.65 260.15 1301.35 262 1302.8 264.3 1308.65 274.4 1315.15 272.65 1319.6 272.65 1323.25 271.2 1325.55 271.4 1328.05 271.65 1331.45 271.6 1334.4 269.75 1337.35 267.95 1338.7 264.7 1340.1 261.45 1339.5 258.2 1338.6 254 1338.2 251.6 1338.5 249.95 1338.5 248.45 1338.8 230.9 1328.7 228.25
        M 1399.2 217.85
        L 1399.35 211.4
        Q 1399.5 206.75 1396.3 203.35 1394.5 199.4 1385.9 199.35 1382.55 198.1 1374.1 203.8
        L 1374.5 203.45
        Q 1373.85 203.8 1373.2 204.3 1372.95 204.3 1372.7 204.55 1369.8 203.6 1367.65 203.75 1363 203.5 1359.65 206.85 1356.15 210.05 1356.15 214.7
        L 1355.75 229.6
        Q 1355.55 233.25 1357.6 236.2
        L 1357.6 236.7
        Q 1357.35 241.35 1360.65 244.8 1362.05 246.25 1363.6 247.05 1366.1 248.9 1371 249.15 1371.65 249.8 1381.85 246 1383.35 245.4 1384.65 244.6 1384.9 244.35 1385.15 244.2 1388.95 243.7 1390.6 242.2 1391.15 241.85 1391.7 241.45 1396.65 239.1 1396.85 230.9 1396.9 229 1396.7 227.35 1397.95 223.95 1398.9 220.25 1399.05 218.95 1399.2 217.85
        M 1437.6 173.4
        Q 1432.95 172.15 1426.1 178.3 1426 178.4 1425.85 178.55 1418.95 184.95 1420.15 189.85 1420.05 193.25 1420.6 195.95 1419.55 194.25 1420 195.75 1420.45 197.2 1421.25 198.45
        L 1421.4 198.6
        Q 1421.5 204.15 1424.85 207.75 1425.2 212.95 1430.1 218.65 1430.2 218.65 1430.2 218.75 1435 223.95 1440.15 225.45 1444.4 226.8 1448.5 224.95 1451.55 223.35 1453.1 220.75 1462.5 218.85 1460.2 209.55
        L 1460.2 209.45
        Q 1460.25 207.65 1460.3 206 1463.85 201.95 1464.05 194.3 1465.1 183.75 1453.4 177.35
        L 1453.25 177.2
        Q 1446.7 173.65 1437.6 173.4
        M 1585.65 136.25
        Q 1583.6 135.3 1580.95 134.9
        L 1581.1 134.9
        Q 1579.25 134.45 1577 134.3 1573.85 133.9 1571 135.4 1570.5 135.5 1570.25 135.75 1568.85 135.45 1567.6 135.55 1559.7 133.3 1553.6 144.9 1551.75 148.25 1551.2 150.75 1548.55 154.25 1550.05 156.15 1549.3 165.7 1556.35 170.2 1558.15 174.15 1562.6 177.15 1564.7 178.85 1571.7 181.2 1573.2 181.75 1574.85 181.8
        L 1579.15 181.9
        Q 1583.8 182 1587.3 178.8 1589.5 176.6 1590.3 173.7 1593 172.3 1594.35 169.75 1597.2 166.95 1597.5 159.65 1599.5 154.8 1594.95 150.9 1595 150.3 1595 149.8 1595.1 146.35 1593.6 143.4 1592.9 141.25 1591.2 139.4 1588.8 136.85 1585.65 136.25
        M 1483.25 177.65
        Q 1482.9 191 1492.6 197.65 1498.65 202 1504.6 202 1509.7 202.55 1514.7 198.9 1516.55 198.3 1518.05 197.45 1532.4 193.55 1532.15 179.65 1532.35 176.35 1530.95 172.35 1532.65 169.95 1533.1 166.95 1533.7 162.65 1531.3 159.2 1528.85 155.6 1524.75 154.5
        L 1512.7 151.4
        Q 1511.45 151.1 1510.2 151.1 1498.85 150.95 1494.7 159.4 1490.5 159.55 1487.55 162.5 1484.05 165.65 1484.1 170.3
        L 1484 173.45
        Q 1483.75 174.5 1483.45 175.6 1483.3 176.6 1483.25 177.65
        M 1672.2 85.4
        Q 1670.35 85 1668.55 85.7
        L 1615.25 108.5
        Q 1613.55 109.25 1612.6 110.85 1611.7 112.5 1611.95 114.4 1612 116.15 1613.25 117.6
        L 1634.55 141.85
        Q 1634.7 141.85 1634.7 141.95
        L 1634.75 142.1 1656.1 166.45
        Q 1657.45 167.9 1659.45 168.3 1661.35 168.6 1663.15 167.65
        L 1710.85 141.05
        Q 1712.4 140.15 1713.2 138.7 1713.85 137.05 1713.8 135.45 1713.6 133.8 1712.45 132.5
        L 1675.15 87.35
        Q 1673.95 85.85 1672.2 85.4
        M 1688.05 120.6
        L 1699.45 134.4 1661.7 155.5 1648.1 140.05 1688.05 120.6
        M 1495.9 1444.1
        Q 1495.35 1446.35 1496.55 1448.45
        L 1538.1 1516.2
        Q 1539.05 1517.75 1540.9 1518.6
        L 1584.75 1536
        Q 1586.9 1536.8 1589 1535.85 1591.2 1534.9 1592 1532.75 1592.95 1530.5 1592 1528.3 1591.05 1526.2 1588.95 1525.35
        L 1546.85 1508.65 1506.3 1442.5
        Q 1505.15 1440.45 1502.85 1439.9 1500.45 1439.35 1498.5 1440.65 1496.5 1441.75 1495.9 1444.1
        M 1303.55 982.25
        Q 1301.5 984.55 1300.8 987.6 1299.95 990.6 1300.85 993.8 1315.65 1050.7 1333.1 1096.9 1348.7 1137.95 1366.15 1170.8 1368.1 1174.5 1372.1 1176.3 1375.95 1178 1380.1 1177 1409.95 1169.55 1439.8 1156.2 1475.3 1140.1 1511.15 1115.65 1514.95 1113 1516.1 1108.35 1517.25 1103.7 1515.05 1099.65 1480.9 1035.15 1450.95 959.6 1439.5 931 1428.75 900.95 1427.5 897.45 1424.5 895.2 1421.55 892.95 1417.9 892.8 1414.1 892.55 1410.9 894.35 1373.9 915.45 1340.1 946 1321.35 962.65 1303.55 982.25
        M 1410.5 923.45
        Q 1419 946.65 1427.9 968.85 1456.05 1039.95 1487.9 1101.35 1458.65 1120.35 1429.6 1133.6
        L 1429.7 1133.5
        Q 1406.45 1143.85 1383.45 1150.3 1369.2 1122.2 1356.3 1088.2 1340.25 1045.6 1326.6 993.95 1341.25 978.2 1356.6 964.45 1382.6 941.05 1410.5 923.45
        M 2011.55 575.65
        Q 1980.25 579.4 1949 584 1916.45 588.6 1883.65 594.05 1850.95 599.35 1818.05 605.7 1794.8 610 1771.6 614.7 1753.1 618.4 1734.45 622.7
        L 1734.6 622.7
        Q 1707.8 628.55 1680.85 635.45 1607.75 654 1533.2 678.75 1526.35 681 1523 687.45 1519.7 694 1521.75 700.95 1549.85 794.05 1585.35 886.85 1602.8 932.75 1622.05 978.55
        L 1622.05 978.7
        Q 1647.5 1038.9 1675.95 1099.1 1676.2 1099.65 1676.5 1100.25 1703.05 1156.45 1732.45 1214.35 1759.5 1267.45 1788.95 1321.8 1816.15 1372.15 1845.5 1423.5
        L 1845.5 1423.65
        Q 1870.1 1466.85 1896.2 1510.9 1899.8 1517.05 1906.7 1518.95 1913.45 1520.9 1919.85 1517.65 1982.9 1484.85 2044.45 1446.1 2045.2 1445.5 2045.95 1444.9 2101.25 1410 2155.3 1370.25 2209.65 1330.2 2262.9 1285.25
        L 2263.05 1285.15
        Q 2271.55 1277.8 2280.35 1270.35 2328.75 1228.3 2376.35 1182.1 2379.85 1178.8 2381.1 1174.2 2382.5 1169.55 2381.2 1164.85 2361.25 1088 2334.3 1013.65
        L 2334.3 1013.5
        Q 2328.8 998.5 2323.1 983.7 2296.85 915.85 2264.9 850.15 2255.7 831.1 2245.8 812.35 2213.6 750.3 2176.2 690.05 2166.3 674.15 2156.2 658.75 2128.55 616.4 2098.45 575.25 2095.65 571.45 2091.4 569.5 2087.05 567.5 2082.4 568.05 2046.95 571.4 2011.55 575.65
        M 2021.8 611.25
        Q 2021.85 610.75 2022 610.35 2048.8 607.15 2075.65 604.6 2092.45 627.85 2108.45 651.45 2067.35 627.2 2021.8 611.25
        M 1954.1 619.35
        Q 1963.9 617.8 1973.65 616.55 1987.65 620.2 2001.55 624.6 2000.5 636.9 1999.4 649.55 1998.15 663.45 1996.8 677.6 1946.8 653.95 1893.8 635.7 1894.15 632.05 1894.5 628.5 1924.4 623.5 1954.1 619.35
        M 2015.3 686.4
        Q 2016.9 668.9 2018.55 651.15 2019.4 640.95 2020.3 630.85 2079.3 652.35 2130.6 688.6 2128.9 719.25 2126.7 750.2 2073.1 714.9 2015.3 686.4
        M 1994.85 697.7
        Q 1991.45 732.45 1987.5 766.65 1936.65 739.2 1883.5 715.8 1887.85 685.45 1891.55 655.15 1944.8 673.85 1994.85 697.7
        M 2005.65 776.6
        Q 2009.7 741.95 2013.3 706.8 2071.3 735.9 2125.1 772.35 2122.25 809 2118.65 845.95 2063.8 808.7 2005.65 776.6
        M 2145.05 762.65
        Q 2146.85 737.6 2148.35 712.9 2176.45 758.3 2201.45 804.75 2173.8 782.55 2145.05 762.65
        M 1745.9 656.65
        Q 1762.3 652.95 1778.65 649.7 1801.6 645 1824.65 640.8 1831.75 639.4 1838.75 638.15 1856.05 643.15 1873.05 648.85 1869.5 678.3 1865.3 707.7 1806.7 682.45 1745.15 661.7 1745.5 659.2 1745.9 656.65
        M 1689.65 669.95
        Q 1694.9 668.6 1700.35 667.35 1712.1 670.95 1723.85 674.75 1718.05 710.85 1709.9 746.05 1647.6 721.25 1583.55 700.05 1637 683.35 1689.65 669.95
        M 1727.8 753.2
        Q 1736.25 717.45 1742.25 680.95 1803.75 701.95 1862.55 727.45 1856.3 767.4 1848.85 807.45 1789.35 778.55 1727.8 753.2
        M 1562.95 713.35
        Q 1635.25 736.8 1705.3 764.75 1688.4 830.55 1663.1 893.7 1641.45 885.05 1619.75 876.95 1619.15 875.55 1618.7 874.25
        L 1618.7 874.1
        Q 1588.1 793.85 1562.95 713.35
        M 1845.2 826.9
        Q 1831.95 893.8 1815.15 960.3 1749.1 928.6 1680.85 900.85 1706.3 837.8 1723.15 772 1785.15 797.6 1845.2 826.9
        M 1832.65 968.9
        Q 1849.65 902.45 1863 835.7 1917.65 862.95 1970.95 893.6 1965.05 933.05 1958.65 971.75
        L 1958.65 971.6
        Q 1953.75 1000.75 1948.45 1029.5 1891.35 997.5 1832.65 968.9
        M 1643.9 938.2
        Q 1636.3 919.6 1629.1 901 1642.3 906.15 1655.7 911.4 1650.05 924.85 1643.9 938.2
        M 1654.9 964.75
        Q 1654.35 963.45 1653.85 962.2 1664.15 940.55 1673.5 918.55 1742.95 946.75 1810.2 979.25 1792.45 1045.9 1770.9 1112.2 1740.9 1099.3 1710.15 1087.9 1709.2 1086 1708.35 1084.1 1707.95 1083.4 1707.75 1082.9 1679.9 1023.8 1654.9 964.75
        M 1764.95 1130.45
        Q 1758.05 1150.8 1750.85 1171.45 1736.1 1141.95 1722.1 1112.95 1743.7 1121.35 1764.95 1130.45
        M 1916.05 1183.6
        Q 1854 1148.5 1788.65 1119.85 1810.05 1053.9 1827.8 987.75 1887.05 1016.9 1944.6 1049.5 1931.35 1118 1916.05 1183.6
        M 1822.2 1308.55
        Q 1821.25 1306.6 1820.3 1304.85 1791.2 1250.85 1764.3 1198.15 1763.45 1196.5 1762.7 1194.95 1772.95 1166.45 1782.5 1138.1 1848.6 1167.35 1911.35 1203 1895.7 1267.05 1877.85 1328.15 1850.75 1317.25 1822.2 1308.55
        M 1861.95 1380.3
        Q 1848.5 1356.5 1835.6 1332.95 1854.35 1339.25 1872.45 1346.65 1867.2 1363.55 1861.95 1380.3
        M 1895.7 1335.65
        Q 1913.25 1275.7 1928.65 1213.05 1992.75 1250.6 2053.15 1295.35 2041.8 1353.95 2028.85 1413.65 2028.6 1413.65 2028.5 1413.75 1967.15 1366.9 1895.7 1335.65
        M 1876.45 1405.9
        Q 1875.6 1404.55 1874.9 1403.1 1882.75 1378.85 1890.15 1354.2 1955 1382.75 2011.15 1424.8 1965.15 1453.15 1918.4 1478.15 1896.85 1441.65 1876.45 1405.9
        M 2334.8 1130.35
        Q 2319.5 1116.95 2304.1 1104.1 2308.15 1079.35 2311 1054.7 2323.8 1092.25 2334.8 1130.35
        M 2300.2 1125.9
        Q 2322.2 1144.55 2343.75 1164 2310 1196.4 2275.8 1226.85 2290.75 1176.4 2300.2 1125.9
        M 2295.6 1012
        Q 2292.95 1050.8 2287.05 1089.75 2254.1 1062.4 2220.35 1036.55 2223.95 1008.8 2227.2 980.85 2228.65 967.4 2230.05 953.8 2263.5 981.8 2295.6 1012
        M 2212.25 939.1
        Q 2210.35 958.95 2208.15 978.7 2205.6 1001.1 2202.75 1023.35 2164.15 994.5 2124.7 967.35 2130.15 923.6 2134.65 880.3 2174.3 908.35 2212.25 939.1
        M 2232.3 930.75
        Q 2234.75 902.35 2236.65 873.75 2259.95 922.2 2280 971.8 2256.5 950.7 2232.3 930.75
        M 2214.25 916.2
        Q 2176.3 886.1 2136.75 858.55 2140.35 821.45 2143.35 784.9 2182.45 812.7 2219.25 844.55 2217.15 880.45 2214.25 916.2
        M 2116.6 867.7
        Q 2112.2 911.15 2106.85 955.3 2050.35 917.5 1991.8 883.45 1997.95 840.85 2003.25 797.2 2061.6 829.85 2116.6 867.7
        M 1977.45 974.9
        L 1977.55 974.9
        Q 1983.45 939.7 1988.75 903.95 2047.5 938.4 2104.3 976.7 2095.85 1043.8 2085.25 1112.25 2026.55 1074.05 1966.1 1039.55 1971.95 1007.4 1977.45 974.9
        M 1962.25 1059.4
        Q 2023.05 1094.25 2081.95 1133.1 2070.65 1202.95 2057.2 1274.5 1997.05 1230.55 1933.3 1193.5 1948.9 1127.9 1962.25 1059.4
        M 2199.9 1045.1
        Q 2190.75 1111.1 2178 1175.85 2140.8 1149.05 2102.9 1123.95 2113.45 1055.7 2122.05 988.85 2161.4 1016 2199.9 1045.1
        M 2246.9 1251.95
        Q 2243.3 1255 2239.8 1258.2
        L 2239.9 1257.95
        Q 2202.65 1289.4 2164.85 1318.45 2179.1 1264.15 2190.75 1208.95 2219.05 1229.85 2246.9 1251.95
        M 2253.8 1233.1
        Q 2224.65 1210.1 2195.05 1188.4 2207.95 1123.9 2217.35 1058.55 2250.7 1084.4 2283.45 1111.7 2272.55 1172.35 2253.8 1233.1
        M 2140 1337.2
        Q 2139.3 1337.7 2138.7 1338.15 2106.95 1311.6 2074.3 1287.2 2088 1215.15 2099.55 1144.65 2137 1169.75 2173.8 1196.6 2158.95 1267.55 2140 1337.2
        M 2051.6 1399
        Q 2061.35 1353.2 2070.25 1308 2096.85 1328.25 2122.75 1349.85 2087.4 1375.45 2051.6 1399
        M 1866.8 816.2
        Q 1874.4 775.85 1880.6 735.45 1933.95 759.3 1985.1 787.15 1979.95 830.65 1973.9 873.15 1921.1 843.15 1866.8 816.2
        M 1922.05 1666.2
        Q 1919.65 1666 1917.95 1667.6 1890.4 1691.45 1841 1682.8 1838.65 1682.3 1836.85 1683.65 1834.8 1685 1834.5 1687.35 1834.05 1689.65 1835.4 1691.6 1836.7 1693.45 1839.1 1693.95 1894.6 1703.7 1925.45 1676.1 1927.15 1674.5 1927.35 1672.25 1927.5 1669.85 1925.9 1668.15 1924.3 1666.4 1922.05 1666.2
        M 2501.95 1178.2
        Q 2501.05 1180.3 2502 1182.6 2516.95 1217.7 2488.4 1243.3 2486.6 1244.75 2486.55 1247.15 2486.5 1249.45 2488.1 1251.25 2489.55 1253.05 2491.95 1253.1 2494.2 1253.15 2496.05 1251.7 2530.5 1220.85 2512.45 1178.25 2511.45 1176.05 2509.4 1175.1 2507.25 1174.15 2505.1 1175.15 2502.9 1176.1 2501.95 1178.2
        M 2104.45 450.8
        Q 2102.55 449.25 2100.3 449.3 1980.35 454.65 1895.35 467.95 1893.1 468.25 1891.65 470.25 1890.35 472.1 1890.7 474.4 1890.95 476.65 1893 478.1 1894.8 479.55 1897.1 479.2 1981.55 466 2100.8 460.7 2103.2 460.6 2104.7 458.9 2106.3 457.05 2106.25 454.8 2106.2 452.35 2104.45 450.8
        M 1009.1 956.5
        Q 1007.55 958.2 1007.6 960.45 1010.55 1026.35 1049.45 1046.95 1051.5 1048.15 1053.75 1047.45 1056.1 1046.75 1057.15 1044.75 1058.3 1042.6 1057.6 1040.35 1056.9 1038.1 1054.95 1036.95 1021.6 1018.35 1018.95 960 1018.85 957.6 1017.15 956.05 1015.3 954.5 1013.05 954.55 1010.65 954.6 1009.1 956.5
        M 1358.35 52.3
        Q 1356.25 51.1 1353.95 51.8 1253.8 81.25 1173.7 124.35 1171.55 125.4 1171 127.65 1170.3 129.9 1171.35 131.95 1172.45 134 1174.7 134.8 1176.95 135.4 1179.1 134.3 1258.35 91.7 1357.2 62.75 1359.45 62 1360.55 60.05 1361.7 57.9 1361.05 55.65 1360.35 53.35 1358.35 52.3
        M 1429.95 55.05
        Q 1427.8 53.85 1425.5 54.65 1268.95 104.85 1122.7 180.4 1120.5 181.45 1119.8 183.75 1119.15 185.85 1120.25 188 1121.3 190.05 1123.55 190.75 1125.7 191.45 1127.85 190.5 1273.2 115.3 1429 65.45 1431.2 64.65 1432.4 62.65 1433.45 60.55 1432.75 58.25 1431.9 56.1 1429.95 55.05
        M 1951.8 174.05
        Q 1950.35 172.1 1948.1 171.9 1945.7 171.5 1943.95 172.95 1942 174.4 1941.8 176.8 1941.35 179.05 1942.8 180.95 1960.9 204.4 1952.4 229.9 1951.6 232.05 1952.65 234.2 1953.75 236.25 1956 237.1 1958.1 237.9 1960.3 236.8 1962.3 235.7 1963.1 233.6 1973.8 202.5 1951.8 174.05
        M 912.5 1613.75
        Q 910.75 1612.05 908.5 1612.05 836.45 1611.7 780.1 1643.25 778.1 1644.35 777.45 1646.6 776.7 1648.85 777.95 1650.85 779.1 1652.9 781.35 1653.65 783.6 1654.25 785.6 1653.15 839.55 1623 908.4 1623.35 910.7 1623.35 912.4 1621.8 914 1620.1 914.1 1617.75 914.05 1615.35 912.5 1613.75
        M 1093.05 1738.45
        Q 1092.05 1740.5 1092.8 1742.75 1104.65 1774.9 1096.45 1813.3 1095.85 1815.55 1097.2 1817.55 1098.45 1819.55 1100.8 1820.05 1103.05 1820.55 1105 1819.3 1107.05 1817.9 1107.55 1815.7 1116.4 1773.75 1103.5 1738.8 1102.75 1736.5 1100.6 1735.6 1098.45 1734.6 1096.25 1735.5 1093.95 1736.3 1093.05 1738.45
        M 936.95 1260.9
        Q 934.8 1260.05 932.6 1260.9 930.45 1261.8 929.55 1263.95 914.9 1299.1 908.95 1334.7 874.65 1342.35 843.25 1361 841.25 1362.25 840.6 1364.5 840 1366.7 841.25 1368.75 842.5 1370.75 844.75 1371.4 846.95 1372 848.95 1370.7 880.55 1352.05 915.15 1345 916.85 1344.7 918.1 1343.4 919.35 1341.95 919.65 1340.3 925.15 1304.05 940.1 1268.3 940.95 1266.15 940.1 1264 939.05 1261.8 936.95 1260.9
        M 1404.35 1570.55
        Q 1402.5 1572.2 1402.5 1574.5 1399.65 1644.8 1346.15 1677.5 1344.1 1678.75 1343.55 1681.15 1342.9 1683.4 1344.15 1685.35 1345.4 1687.25 1347.75 1687.9 1350 1688.5 1352 1687.2 1410.6 1651.6 1413.85 1574.9 1413.85 1572.65 1412.4 1570.9 1410.65 1569.05 1408.35 1569.05 1406.05 1569 1404.35 1570.55
        M 1143.4 2767.45
        Q 1144.6 2765.55 1144 2763.35 1143.5 2760.95 1141.45 2759.75 1139.5 2758.4 1137.25 2759.05 1134.95 2759.65 1133.7 2761.55 1120.5 2782.75 1095.9 2774 1093.75 2773.2 1091.55 2774.15 1089.4 2775.1 1088.75 2777.35 1087.9 2779.5 1088.85 2781.7 1089.85 2783.9 1092.1 2784.7 1125.45 2796.5 1143.4 2767.45
        M 34.15 2275.85
        Q 31.85 2275.2 29.9 2276.5 27.75 2277.55 27.15 2279.95 21.65 2300.15 30.55 2310.65 38.5 2321.4 60.35 2322.15 62.65 2322.25 64.35 2320.65 65.95 2318.95 66.2 2316.7 66.3 2314.3 64.65 2312.55 63 2310.95 60.75 2310.8 45.45 2310.3 39.55 2303.5 34.45 2296.45 38.1 2282.9 38.75 2280.6 37.6 2278.6 36.4 2276.5 34.15 2275.85
        M 516 1665.65
        Q 504.05 1666.95 486.35 1682.1 484.55 1683.6 484.5 1685.95 484.25 1688.25 485.75 1690.05 487.25 1691.9 489.65 1692.05 491.95 1692.15 493.7 1690.65 508.1 1678.35 517.55 1676.8 524.25 1676.15 527.7 1683.2 528.7 1685.25 530.95 1686.05 533.15 1686.85 535.3 1685.75 537.35 1684.75 538.15 1682.55 538.95 1680.3 537.9 1678.25 530.65 1663.4 516 1665.65
        M 1226.85 2320.55
        Q 1225.3 2322.3 1225.5 2324.7 1230.15 2369 1239.9 2407.85 1240.35 2410.1 1242.4 2411.3 1244.45 2412.4 1246.85 2411.95 1249.05 2411.4 1250.25 2409.3 1251.35 2407.3 1250.95 2405 1241.4 2367.05 1236.85 2323.5 1236.6 2321.15 1234.8 2319.75 1233 2318.25 1230.65 2318.45 1228.2 2318.65 1226.85 2320.55
        Z
    " />
</svg>
